<svg id="ba826dcb-25c1-4c5e-9e23-7c1506db6a93" data-name="Layer 1" xmlns="http://www.w3.org/2000/svg" viewBox="0 0 1024 1024"><defs><style>.ef09bfc9-95a9-4828-a4c4-c99285a6def5{fill:#6673d8;}.b6295090-0d76-460b-aca8-0ad6460b2732{fill:#8594ed;}.b174fbc8-5ee5-45a6-bb80-f50d1d82d79f,.edecb4ac-50a3-4078-82e6-ce8b0afb13b7{fill:#4952bd;}.b84066d5-c5c7-418a-b15d-12c98228d0ac{fill:#3c49af;}.b174fbc8-5ee5-45a6-bb80-f50d1d82d79f{fill-rule:evenodd;}</style></defs><path class="ef09bfc9-95a9-4828-a4c4-c99285a6def5" d="M510.06,765c-28.29-.48-56.1-1.81-82.58-4.47-.36,0-.61-.12-1-.12-18.38-1.82-36.39-4.11-53.8-6.89v-.13c-.24,0-.36-.12-.6-.12-144.36-23-247.74-78.22-255-143.27h-.37V519.71h.37c5.68,51,70.12,95.75,167.09,123.8.12.12.12.12.24.12v.12c17.17,5,35.54,9.43,54.77,13.3.24,0,.36.13.6.13a797.9,797.9,0,0,0,79.08,12.09c18.49,21.76,37.35,42.43,56.34,61.78Q492.64,748.65,510.06,765Z"/><path class="ef09bfc9-95a9-4828-a4c4-c99285a6def5" d="M841.58,519.71C833.23,606,676.91,674.83,485.27,674.83c-4.47,0-8.82,0-13.3-.24,9.55,10.63,19.35,20.91,29.26,31.07,19.47,19.83,39.17,38.57,58.88,55.73C716.2,746.4,834.44,684.74,841.58,610h.36V519.71Zm-36.64,134c-9.26,5.34-16.84,1-16.87-9.69s7.5-23.68,16.77-29,16.89-1.06,16.92,9.58S814.27,648.3,804.94,653.69Z"/><path class="b6295090-0d76-460b-aca8-0ad6460b2732" d="M704.71,913.73a821.83,821.83,0,0,1-89.83,12.7c-2.66.24-5.44.48-8.1.73-15.84,1.32-32.16,2.29-48.72,2.78-1.7,0-3.51.12-5.2.12-9.31.24-18.86.48-28.54.48-219.08,0-397.65-68.79-407.2-155.12h-.37V685.1h.37c8.46,76.42,149.56,139,333.94,152.34h.72q25.94,2,53,2.54h2.54c5.56,0,11.36.12,17,.12,24.06,0,47.64-.84,70.49-2.54C632.41,867.91,669.41,893.54,704.71,913.73Z"/><path class="b6295090-0d76-460b-aca8-0ad6460b2732" d="M841.58,685.1c-5.93,61.18-86.45,113.65-201.31,139q12,8,23.58,15.24l4.35,2.54c27.93,16.92,54,29.38,77.5,37,56-27.08,91.65-63.11,95.76-102.89a5.2,5.2,0,0,0,.12-.6h.36V685.1ZM804.94,812.62c-9.26,5.35-16.84,1-16.87-9.68s7.5-23.69,16.77-29,16.89-1.07,16.92,9.58S814.27,807.24,804.94,812.62Z"/><path class="edecb4ac-50a3-4078-82e6-ce8b0afb13b7" d="M204.89,322.51c-47.63-23.94-78.7-53.2-86.2-85.36,5.56-23.45,23.58-45.34,51.38-64.8,1.58,40.14,12.09,87.29,30.71,138.92C202.11,315,203.56,318.76,204.89,322.51Z"/><path class="b84066d5-c5c7-418a-b15d-12c98228d0ac" d="M840.25,237.15c-17.41,82.46-173.62,146.78-363.68,146.78-82.94,0-159.48-12.21-220.78-33-7.85-17.65-14.75-35.06-20.91-52C216,246.46,206.1,198.83,206.1,161.35c0-5.69.25-11.85.85-18.14,66.74-32.52,162.86-52.84,269.62-52.84C666.63,90.37,822.84,154.82,840.25,237.15Z"/><path class="edecb4ac-50a3-4078-82e6-ce8b0afb13b7" d="M343.21,573a619.17,619.17,0,0,1-77.86-20.2c-.37-.12-.85-.24-1.21-.36A436.39,436.39,0,0,1,208,530c-.12,0-.24-.12-.37-.12-53.31-26.11-86.56-59-90.55-94.91h-.37V333.27a62.48,62.48,0,0,1,1-10.52c4.11,26.84,24.55,52,57.67,73.75.73.49,1.45,1,2.3,1.46,21.4,13.9,48.24,26.35,79.07,37.11a1242.82,1242.82,0,0,0,69.4,113.65C331.72,556.82,337.28,564.92,343.21,573Z"/><path class="edecb4ac-50a3-4078-82e6-ce8b0afb13b7" d="M841.09,322.75C829.73,407.63,674.85,475,485.27,475c-64.2,0-124.53-7.74-176.52-21.4,14.51,24.91,30.35,49.94,47.28,74.72,13.29,19.35,27,38.33,41,56.46a716.45,716.45,0,0,0,88.26,5.2c191.64,0,348-68.79,356.31-155h.36V333.27A76.24,76.24,0,0,0,841.09,322.75Zm-41.24,144c-9.26,5.35-16.84,1-16.87-9.68s7.5-23.68,16.76-29,16.9-1.07,16.93,9.58S809.17,461.37,799.85,466.75Z"/><path class="b174fbc8-5ee5-45a6-bb80-f50d1d82d79f" d="M880,984.58c-53,45.46-152.22,19.59-265.15-58.15-17.77-12.21-36-25.87-54.41-40.62Q534.18,864.59,507.28,840c-13.06-11.85-26.24-24.42-39.42-37.48q-20.31-20.13-40.38-42c-10.28-11-20.43-22.37-30.59-34-18.74-21.52-37.36-44-55.62-67.46-.48-.61-1-1.33-1.45-1.93-7.61-9.68-15-19.35-22.12-29.14-18.5-25.15-36-50.18-52.35-75.21-5.44-8.22-10.64-16.44-15.84-24.66A1298.36,1298.36,0,0,1,177.69,398c-3-6.29-5.92-12.58-8.7-18.74C98,223,83.87,91.34,144,39.47c43.28-37.23,117.52-26.72,204.69,20.8-60.21-24.06-111.11-24.79-143.51,3.14C181.32,84,170,117.94,169.83,161.22c0,3.63,0,7.38.24,11.13,1.58,40.14,12.09,87.29,30.71,138.92,1.33,3.75,2.78,7.49,4.11,11.24a942.74,942.74,0,0,0,42.8,95.27c2.91,5.69,5.93,11.49,9.07,17.29a1242.82,1242.82,0,0,0,69.4,113.65c5.56,8.1,11.12,16.2,17,24.31q16,22.49,33.25,44.73c6,7.5,12,15.11,17.89,22.37,8.1,9.91,16.2,19.7,24.55,29.14,18.49,21.76,37.35,42.43,56.34,61.78q17.4,17.6,34.82,34c13.3,12.46,26.48,24.18,39.65,35.31,17.66,15,35.31,28.89,52.6,41.35,120.11,93.06,221.49,92.61,257.16,61.9,23.09-20,34.46-52.23,35.18-93.7v-.12A239.92,239.92,0,0,0,893,774.21c-2.3-23-7.37-48-14.87-74.48A729.93,729.93,0,0,1,903,777.11v.24c.84,3.15,1.69,6.17,2.29,9.19v.37C927.42,878.07,920.77,949.4,880,984.58Z"/></svg>